<?xml version="1.0" encoding="utf-8"?>
<!-- Generator: Adobe Illustrator 16.0.0, SVG Export Plug-In . SVG Version: 6.00 Build 0)  -->
<!DOCTYPE svg PUBLIC "-//W3C//DTD SVG 1.1//EN" "http://www.w3.org/Graphics/SVG/1.1/DTD/svg11.dtd">
<svg version="1.1" id="Layer_2" xmlns="http://www.w3.org/2000/svg" xmlns:xlink="http://www.w3.org/1999/xlink" x="0px" y="0px"
	 width="1920px" height="1080px" viewBox="0 0 1920 1080" enable-background="new 0 0 1920 1080" xml:space="preserve">
<rect fill="#4DABCF" width="1920" height="1080"/>
<polygon fill="#FFFFFF" points="0,1008 1036,1008 991,1035.25 1288,987.125 1127,944.563 1094,964 0,964 "/>
<linearGradient id="SVGID_1_" gradientUnits="userSpaceOnUse" x1="1128" y1="988" x2="1660" y2="988">
	<stop  offset="0" style="stop-color:#000000;stop-opacity:0"/>
	<stop  offset="1" style="stop-color:#000000"/>
</linearGradient>
<ellipse opacity="0.6" fill="url(#SVGID_1_)" cx="1394" cy="988" rx="266" ry="9"/>
<polygon fill="#FFFFFF" points="0,890 393,890 348,917.25 645,869.125 484,826.563 451,846 0,846 "/>
<linearGradient id="SVGID_2_" gradientUnits="userSpaceOnUse" x1="334" y1="863" x2="866" y2="863">
	<stop  offset="0" style="stop-color:#000000;stop-opacity:0"/>
	<stop  offset="1" style="stop-color:#000000"/>
</linearGradient>
<ellipse opacity="0.6" fill="url(#SVGID_2_)" cx="600" cy="863" rx="266" ry="9"/>
<path fill="#CCA58C" d="M1339.333,740c0,0,2-2.001,4-3.667s4.001-2.332,4.334-3.666s-3-0.667-3-0.667s2.666-2.333,2.666-3.333
	s-4.667-0.333-6,2S1339.333,740,1339.333,740z"/>
<path fill="#F4C5A7" d="M1334.667,747.667c0,0,6.666,2.334,9.666,2s5.333,0,5-2s-8.334,0.666-9-2.667s0-10.334,1.667-12.667
	s5.001-5.666,3.667-6.666s-6.001,3.666-7.334,6.666s-3.333,13-3.333,13L1334.667,747.667z"/>
<path fill="#15282F" d="M437.25,730.834c0,0-11.263,7.242-9.292,16.582C430.333,758.667,445,760,453.333,761
	c8.818,1.059,22.252,3.259,36,5.167c14.26,1.979,25.167,4.166,25.167,4.166l0.333,5.167c0,0-13.5,18.501-21.833,37.167
	s-18.333,35-20.667,42.333s-1.667,10-1.667,10l6.333,0.333l1.333-2.333c0,0,2.834,2.278,6.833,2.167
	c6-0.167,11.833-6.834,11.833-6.834s-10.333,1.668-13.667,1.334s-7.333-2-5.333-7c1.76-4.399,31.667-47.334,31.667-47.334
	s-13,32.001-14.667,40.334s-0.667,11.666-0.667,11.666l4.333-0.666l2-2c0,0,3-0.334,5,0.333s4.667,0.334,8.333-2.333
	s6.333-7.334,6.333-7.334s-10.333,4-14.667,4.667c-4.435,0.683-6.667-0.333-6.667-0.333s8-22.167,17.667-39.167s25-44.833,25-44.833
	l-2.333-19L468,744l4.667-9c0,0-13,1.333-23.333-0.667S437.25,730.834,437.25,730.834z"/>
<path fill="#503115" d="M499.333,579c-1.365,0.094-8,1.667-8.667,0s0.333-8,0.333-8s4.74-1.76,8.406-1.094s8.188,2.031,8.188,2.031
	L502,579.333C502,579.333,500.698,578.906,499.333,579z"/>
<path fill="#DAE3EC" d="M523.667,615.667c0,0,11.504,42.712,17.333,58.667c6.333,17.333,13.667,36,13.667,36L544.333,723
	c0,0-5.646-13.883-9-23.333c-3.667-10.333-14.667-49.333-14.667-49.333L523.667,615.667z"/>
<path fill="#ECF4F7" d="M520,606.667c0,0-9.771,13.261-10.667,14.667C507,625,496.672,670.223,475,699
	c-20.333,27-42.667,21-44,27.334c-0.586,2.786,9.011,11.696,31,12.666c22.667,1,31,2,35.667-4.333S519,697,521.667,681
	s4-38.332,4.333-45.666S523,609,523,609L520,606.667z"/>
<linearGradient id="SVGID_3_" gradientUnits="userSpaceOnUse" x1="510.8726" y1="592.0879" x2="507.5391" y2="607.4219">
	<stop  offset="0" style="stop-color:#F4C5A7"/>
	<stop  offset="1" style="stop-color:#CCA58C"/>
</linearGradient>
<path fill="url(#SVGID_3_)" d="M519.667,609.334c0,0,2.667-9-1.667-16s-4.667-10.667-7.333-10.667s-11,0.667-10-4.333
	s2-6.667,5.333-5.667s-4-6.333-6-7.333S489.667,562,493.333,555s18-5,32.667,3.667s15,14.333,14.667,15.667s-7.667,5-7.667,5
	s4,8.999,1.667,13.333c-0.67,1.245-2,4.333-6,9.667c-3.256,4.341-7.667,8.333-7.667,8.333L519.667,609.334z"/>
<path fill="#A7BDBB" d="M524.333,620c0,0,3.667,7.168,3,18.834c-0.458,8.015-2.667,21.166-2.667,21.166s1.667-15.833,1.667-24.333
	C526.333,627.971,524.333,620,524.333,620z"/>
<path fill="#F4C5A7" d="M548.333,774.667c0,0,0.333,8.667,4,9s10.667-1,10.667-1c1-0.334-4.667-2.666-6.667-5s-5-5.334-5-5.334
	L548.333,774.667z"/>
<path fill="#937664" d="M507.333,559.333c0,0,4.504-6.659,5.5-5.166c1,1.5-2,2.666-2,2.666L507.333,559.333z"/>
<path fill="#937664" d="M512.333,561.667c0,0,3,1.666,4.667-0.334s-0.333-5-0.333-5s0,2-1,3S512.333,561.667,512.333,561.667z"/>
<path fill="#FFFFFF" d="M531,591v-5c0,0-1.833-2.5-6.25-0.667c-2.904,1.205-3.458,5-3.458,5L531,591z"/>
<path fill="#CCA58C" d="M523.417,589.737c0,0,0.736-2.978,3.357-4.469c0.389-0.222,0.801-0.356,1.219-0.438
	c-1.045-0.186-2.118,0.043-3.244,0.503c-4.083,1.667-3.458,5-3.458,5L531,591v-0.791L523.417,589.737z"/>
<path fill="#DAE3EC" d="M1234.667,711.667c0,0,31,39.667,50.333,43s29.001,0.999,36.667-3.334s15-7.666,15-7.666l0.666,4.666
	c0,0-19,18.667-50.333,19.667s-58.333-33.333-58.333-33.333l5.666-21.667"/>
<path fill="#503115" d="M1235.919,661.354c0,0-0.829-4.475-1.24-7.61c-0.451-3.438-1.012-4.411-1.012-4.411
	s-4.001-2.666-5.334-6.333s-1-6.333-1-6.333s-6.332,6.333-7.666,10.333s1.666,11,3.666,13s5.334,1.667,5.334,1.667L1235.919,661.354
	z"/>
<linearGradient id="SVGID_4_" gradientUnits="userSpaceOnUse" x1="1237.4102" y1="675.3145" x2="1225.4102" y2="697.3145">
	<stop  offset="0" style="stop-color:#F4C5A7"/>
	<stop  offset="1" style="stop-color:#CCA58C"/>
</linearGradient>
<path fill="url(#SVGID_4_)" d="M1235.333,661c0,0-4.333-7-7.333-6s-7.999,7.334-4.333,9.667s9,2.666,9,2.666
	s3.915,7.04,4.666,12.667c1.334,10-5.666,16.333-5.666,16.333L1235,700c0,0,9.667-2.333,16-12s5.999-14.999,8.333-16.333
	s10.334-2.666,11.334-7s-5-12.333-11.667-19s-13.333-14.334-16-14.667s-9.001,0-10.667,3s-4.999,9-2.666,12s4,3.333,4,3.333
	c-0.003,0.804,0.015,3.436,0.223,5.595C1234.062,656.716,1235.333,661,1235.333,661z"/>
<path fill="#937664" d="M1241.333,640.333c0,0,1.668-5.667,3.334-5S1241.333,640.333,1241.333,640.333z"/>
<path fill="#937664" d="M1245,644c0,0,1.001-3.334,3.667-2.667s4.667,4.334,3,4.667s-1.766-1.412-2.896-2.12
	C1247.237,642.919,1245,644,1245,644z"/>
<path fill="#937664" d="M1242.667,661.333c0,0-0.551,6.033,1.333,9.334c3.531,6.188,6.667,6.333,6.667,6.333s-5.358,0.647-8-4.667
	C1240.88,668.738,1242.667,661.333,1242.667,661.333z"/>
<path fill="#F4C5A7" d="M1115.333,715.667c0,0-3.334,12.667-2,14s6.334,3.667,8.334,3s1.666-5.667,1.666-5.667
	s3.001-0.666,1.334-3.666s-4.334-2.334-5.334-4.667s-1-2.333-1-2.333L1115.333,715.667z"/>
<path fill="#15282F" d="M1146.667,821.001c0,0-5.667,19-11.667,31s-36.999,58.667-42.666,58s-23-13.001-36.667-18.334
	s-34.333-10.333-34.333-10.333l-0.334,6.333c0,0,17,7.001,37,16.334c15.707,7.33,31.334,19.999,38.334,18.666
	s25.332-17.332,41.666-38.666s28.667-37,28.667-37L1146.667,821.001z"/>
<linearGradient id="SVGID_5_" gradientUnits="userSpaceOnUse" x1="1140.2861" y1="855.6943" x2="1152.6191" y2="839.3604">
	<stop  offset="0" style="stop-color:#000000;stop-opacity:0"/>
	<stop  offset="1" style="stop-color:#000000"/>
</linearGradient>
<path opacity="0.9" fill="url(#SVGID_5_)" d="M1146.667,821.001c0,0-5.667,19-11.667,31c-0.774,1.55-1.969,3.681-3.469,6.21
	c1.457,2.314,3.284,4.421,5.469,5.456c3.087,1.463,6.568,5.617,9.328,9.493c12.02-15.591,20.339-26.159,20.339-26.159
	L1146.667,821.001z"/>
<path fill="#15282F" d="M1022.667,885.001c0,0-4.333-3.999-5-5.333s-4-2.334-4-2.334l-0.667,3c0,0,2.666,0.666,2.333,3
	s-4.334,1.001-5,4.334s1.333,9.666,3,12.333s4.334,5,4.334,5s-2-6.999-1-10.333s0.999-5.668,1.666-6.334s1.667-2.333,1.667-2.333
	l3.333,1.333L1022.667,885.001z"/>
<circle fill="#FFC553" cx="1558.5" cy="777.5" r="207.5"/>
<radialGradient id="SVGID_6_" cx="1618" cy="698" r="235.304" gradientUnits="userSpaceOnUse">
	<stop  offset="0" style="stop-color:#FFFFFF"/>
	<stop  offset="1" style="stop-color:#FFFFFF;stop-opacity:0"/>
</radialGradient>
<circle fill="url(#SVGID_6_)" cx="1558.5" cy="777.5" r="207.5"/>
<ellipse transform="matrix(0.8086 -0.5883 0.5883 0.8086 -98.1787 1085.0717)" opacity="0.6" fill="#FFFFFF" cx="1618.683" cy="693.438" rx="34.042" ry="44.353"/>
<polygon fill="#FFC553" points="798.076,866.652 522.775,765.176 624.251,489.875 899.745,591.191 "/>
<linearGradient id="SVGID_7_" gradientUnits="userSpaceOnUse" x1="647.7598" y1="510.1797" x2="698.7598" y2="645.1797">
	<stop  offset="0" style="stop-color:#FFFFFF"/>
	<stop  offset="1" style="stop-color:#FFFFFF;stop-opacity:0"/>
</linearGradient>
<polygon opacity="0.3" fill="url(#SVGID_7_)" points="798.076,866.652 522.775,765.176 624.251,489.875 899.691,591.218 "/>
<path fill="#32596A" d="M489.333,750c1,0.333,34.333,3.5,42.833,9.667c4.392,3.187,5.167,7.667,3.167,12s-24,31-24,31L508,805.333
	c0,0,11-14.666,17.333-23.333s9.383-10.976,8.333-16.333C532,757.167,489.333,750,489.333,750z"/>
<polygon fill="#FFC553" points="899.531,591.325 624.298,489.917 685,481 938.14,572.475 "/>
<polygon opacity="0.3" fill="#FFFFFF" points="899.531,591.325 624.298,489.917 685,481 938.14,572.475 "/>
<polygon fill="#FFC553" points="856,797 796.774,866.176 899.397,591.298 937.161,572.425 "/>
<polygon opacity="0.1" points="856,797 796.774,866.176 899.504,591.325 937.161,572.425 "/>
<path fill="#714F12" d="M501.5,561.833c0,0-7.5-2.166-5.5-5.166s5-6.001,5-8.334S491.667,545,490.333,546s-7,11.333-4.667,13.333
	s3.666,3.668,3.333,6.334s-2,5.666,0.667,6.333s6,2.334,9,1.667s3.666-2,7.333-1s7.833,0.666,7.833,0.666s-6.667-4.166-9.333-5.833
	S501.5,561.833,501.5,561.833z"/>
<path fill="#CCA58C" d="M506.667,575.333c0,0-3,1-1.667,3s4,1.334,4,1.334s-0.667-0.334-2-1.667S506.667,575.333,506.667,575.333z"
	/>
<path fill="#FFFFFF" d="M519.164,606.816l5.393,3.452l-0.395,12.108c0,0-1.731-6.856-3.669-9.333
	c-1.938-2.476-4.172-4.586-4.172-4.586L519.164,606.816z"/>
<path fill="#FFFFFF" d="M548,777.333l6.333-3c0,0-14.667-38.999-16.333-55.666s-12.667-96.001-20.333-96.334s-3,39.333,0,60
	s8.667,45.334,14.667,61.334S548,777.333,548,777.333z"/>
<path fill="#714F12" d="M1230.62,647.374c0,0-2.286-9.041,4.047-12.374s10.333-3,10.333-3s-0.333-16.334-8-15.667
	s-11.779,6.728-12.667,12.334C1221.996,643.429,1230.62,647.374,1230.62,647.374z"/>
<path fill="#15282F" d="M1158.417,798.168c0,0-15.374,11.916-14.042,23.249c1.334,11.333,49.86,59.478,76.646,77.626
	c27.979,18.958,89.99,47.979,89.99,47.979s1.994,2.99,1.994,0.99s-1.002-3.006-0.002-2.006s2.998,1.331,2.998,1.331l2.334,2.665
	l3.665-3.667c0,0-0.666-3.667,1.334-5.334s6.231-2.378,7.333-7.334c2-9-3.333-13.666-3.333-13.666s1.333,6.332-3,11.999
	c-2.025,2.648-7.917,11.334-7.917,11.334l-3.917-1V941c0,0-44.5-22.332-76.833-46.999S1189,846,1185,837.667s-5.666-16-5.666-16
	L1158.417,798.168z"/>
<path fill="#FFFFFF" d="M1224.5,697.083c0,0,2.083,0.958,2.75-2.042s1.375-7.021,1.375-7.021s7.021,2.99,10.354,7.99
	s3.343,8.994,3.343,8.994l-5.66,0.665c0,0,1.001,12.999-1.332,26.665s-6.998,40.667-21.998,57s-18.999,22.998-21.666,26.665
	s-4.999,10.668-9.666,9.334s-13.666-8.333-19.333-16.667s-7.334-18.333-7.334-18.333s17.668-9.334,29.334-24.667
	s17.666-22.333,22.666-31.333s7-16.334,7-16.334s-10.999-15.666-24.666-29.333S1164,666.334,1164,666.334s-16,11.167-25.333,22.25
	C1130.151,698.696,1120,719,1120,719h-6c0,0,4.26-19.775,17.667-38.416c13.666-19,28.334-28.791,37-28.125s23,15.937,36.333,26.604
	S1224.5,697.083,1224.5,697.083z"/>
<path fill="#CCA58C" d="M1230.508,657.803c0,0-4.961-0.845-4.961,2.143s5.75,4.903,5.75,4.903s-4.453-2.424-4.115-4.059
	S1230.508,657.803,1230.508,657.803z"/>
<path fill="#15282F" d="M486.333,749.833c0.5,0.167,43.333,5.667,47.5,14.334c2.848,5.925-3.833,12.667-6.833,17l-13.667,17.166
	c0,0,15.333-25.5,8.667-31.333S486.333,749.833,486.333,749.833z"/>
</svg>
